<svg width="24" height="24" viewBox="0 0 24 24" fill="none" xmlns="http://www.w3.org/2000/svg">
<path d="M22.501 12.2326C22.501 11.3693 22.4295 10.7393 22.2748 10.0859H12.2153V13.9826H18.12C18.001 14.9509 17.3582 16.4093 15.9296 17.3892L15.9096 17.5197L19.0902 19.9344L19.3106 19.9559C21.3343 18.1242 22.501 15.4292 22.501 12.2326" fill="#4285F4"/>
<path d="M12.214 22.5015C15.1068 22.5015 17.5353 21.5682 19.3092 19.9582L15.9282 17.3914C15.0235 18.0098 13.8092 18.4414 12.214 18.4414C9.38069 18.4414 6.97596 16.6098 6.11874 14.0781L5.99309 14.0886L2.68583 16.5969L2.64258 16.7148C4.40446 20.1448 8.0235 22.5015 12.214 22.5015Z" fill="#34A853"/>
<path d="M6.12046 14.0755C5.89428 13.4222 5.76337 12.7221 5.76337 11.9988C5.76337 11.2754 5.89428 10.5755 6.10856 9.92215L6.10257 9.78301L2.75386 7.23438L2.64429 7.28545C1.91814 8.7088 1.50146 10.3072 1.50146 11.9988C1.50146 13.6905 1.91814 15.2888 2.64429 16.7121L6.12046 14.0755" fill="#FBBC05"/>
<path d="M12.2141 5.55997C14.2259 5.55997 15.583 6.41163 16.3569 7.12335L19.3807 4.23C17.5236 2.53834 15.1069 1.5 12.2141 1.5C8.02353 1.5 4.40447 3.85665 2.64258 7.28662L6.10686 9.92332C6.97598 7.39166 9.38073 5.55997 12.2141 5.55997" fill="#EB4335"/>
</svg>
